<svg width="172" height="180" viewBox="0 0 172 180" fill="none" xmlns="http://www.w3.org/2000/svg">
<path fill-rule="evenodd" clip-rule="evenodd" d="M0.862183 89.903C0.862183 85.071 4.77933 81.1538 9.61139 81.1538C14.4434 81.1538 18.3606 85.071 18.3606 89.903V118.262C18.3606 123.094 14.4434 127.011 9.61139 127.011C4.77933 127.011 0.862183 123.094 0.862183 118.262V89.903Z" fill="#5626A6"/>
<path fill-rule="evenodd" clip-rule="evenodd" d="M153.614 89.903C153.614 85.071 157.531 81.1538 162.363 81.1538C167.195 81.1538 171.113 85.071 171.113 89.903V118.262C171.113 123.094 167.195 127.011 162.363 127.011C157.531 127.011 153.614 123.094 153.614 118.262V89.903Z" fill="#01B126"/>
<path fill-rule="evenodd" clip-rule="evenodd" d="M72.6248 62.5309C72.6248 58.575 75.8317 55.3682 79.7876 55.3682H92.1168C96.0727 55.3682 99.2796 58.575 99.2796 62.5309H72.6248Z" fill="#0946F2"/>
<path fill-rule="evenodd" clip-rule="evenodd" d="M84.5853 26.9928C84.5853 26.0492 85.3503 25.2842 86.2939 25.2842C87.2376 25.2842 88.0026 26.0492 88.0026 26.9928V48.0673C88.0026 49.0109 87.2376 49.7759 86.2939 49.7759C85.3503 49.7759 84.5853 49.0109 84.5853 48.0673V26.9928Z" fill="#0946F2"/>
<path fill-rule="evenodd" clip-rule="evenodd" d="M86.3478 49.7856L86.4112 49.7896C116.389 51.6475 137.522 54.1486 149.851 57.306L149.894 57.3171L149.936 57.3315C161.506 61.2715 168.5 68.8847 170.77 80.142C170.728 81.0572 168.655 80.6783 168.429 80.142C166.342 69.7931 159.979 63.3874 149.197 59.7158L149.237 59.7297L148.916 59.6481C136.833 56.6106 116.236 54.173 87.1627 52.3479L86.3356 52.2961L85.5324 52.336C57.3689 53.7534 36.5819 56.1898 23.1996 59.634L22.8209 59.7322L22.5362 59.8236C12.396 63.1184 6.37073 70.7236 4.31225 80.142C4.31225 80.142 2.09319 79.1611 2.54352 77.5972C5.25942 68.1649 11.8379 60.5868 22.1568 57.3236L22.2124 57.3075C35.9005 53.7232 57.2478 51.221 86.2844 49.7888L86.3478 49.7856Z" fill="url(#paint0_linear_433_1032)"/>
<rect width="136.172" height="4.63994" transform="matrix(0.95769 -0.287802 0.263906 0.964548 19.9574 39.1904)" fill="url(#paint1_linear_433_1032)"/>
<path fill-rule="evenodd" clip-rule="evenodd" d="M96.0516 87.958C96.4943 85.7237 98.4779 84.1846 100.756 84.1846L112.118 84.1846C114.356 84.1846 116.315 85.6701 116.797 87.8564C117.687 91.903 118.923 98.7505 118.923 105.598C118.923 112.24 117.76 118.158 116.877 121.693C116.36 123.767 114.466 125.127 112.329 125.127H100.858C98.533 125.127 96.5202 123.526 96.0989 121.24C95.3425 117.134 94.3146 110.393 94.3146 104.083C94.3146 97.903 95.3004 91.7498 96.0516 87.958Z" fill="url(#paint2_linear_433_1032)"/>
<path fill-rule="evenodd" clip-rule="evenodd" d="M55.386 87.958C55.8287 85.7237 57.8123 84.1846 60.09 84.1846L71.452 84.1846C73.6906 84.1846 75.6498 85.6701 76.131 87.8564C77.0217 91.903 78.2572 98.7505 78.2572 105.598C78.2572 112.24 77.0945 118.158 76.2119 121.693C75.6941 123.767 73.8007 125.127 71.6635 125.127H60.1924C57.8674 125.127 55.8546 123.526 55.4333 121.24C54.6769 117.134 53.649 110.393 53.649 104.083C53.649 97.903 54.6348 91.7498 55.386 87.958Z" fill="url(#paint3_linear_433_1032)"/>
<path fill-rule="evenodd" clip-rule="evenodd" d="M44.9989 61.0981C31.1918 61.0981 19.9989 72.291 19.9989 86.0981V155C19.9989 168.807 31.1918 180 44.9989 180H126.906C140.713 180 151.906 168.807 151.906 155V86.0981C151.906 72.291 140.713 61.0981 126.906 61.0981H44.9989ZM135.503 79.0053H36.4018V128.428H135.503V79.0053Z" fill="url(#paint4_linear_433_1032)"/>
<path fill-rule="evenodd" clip-rule="evenodd" d="M43.8206 130.604H37.6474C37.6474 130.604 42.8868 174.151 88.4485 174.151C126.964 174.151 134.683 130.604 134.683 130.604H128.355C128.355 130.604 122.639 165.881 88.4485 167.125C48.0555 165.963 43.8206 130.604 43.8206 130.604Z" fill="white"/>
<defs>
<linearGradient id="paint0_linear_433_1032" x1="50.23" y1="67.5432" x2="141.642" y2="72.0781" gradientUnits="userSpaceOnUse">
<stop stop-color="#5626A6"/>
<stop offset="0.569243" stop-color="#0946F2"/>
<stop offset="0.696483" stop-color="#0A8EC7"/>
<stop offset="0.743287" stop-color="#62CC4E"/>
<stop offset="0.86411" stop-color="#54D145"/>
<stop offset="1" stop-color="#01B126"/>
</linearGradient>
<linearGradient id="paint1_linear_433_1032" x1="38.9649" y1="2.66564" x2="107.963" y2="21.0542" gradientUnits="userSpaceOnUse">
<stop stop-color="#5626A6"/>
<stop offset="0.569243" stop-color="#0946F2"/>
<stop offset="0.696483" stop-color="#0A8EC7"/>
<stop offset="0.743287" stop-color="#62CC4E"/>
<stop offset="0.86411" stop-color="#54D145"/>
<stop offset="1" stop-color="#01B126"/>
</linearGradient>
<linearGradient id="paint2_linear_433_1032" x1="94.2647" y1="123.839" x2="119.719" y2="123.899" gradientUnits="userSpaceOnUse">
<stop stop-color="#0849FC"/>
<stop offset="0.459534" stop-color="#05979D"/>
<stop offset="0.712202" stop-color="#1BD45C"/>
<stop offset="1" stop-color="#01B126"/>
</linearGradient>
<linearGradient id="paint3_linear_433_1032" x1="53.649" y1="122.221" x2="77.1585" y2="122.221" gradientUnits="userSpaceOnUse">
<stop stop-color="#5626A6"/>
<stop offset="1" stop-color="#153AFF"/>
</linearGradient>
<linearGradient id="paint4_linear_433_1032" x1="57.7434" y1="129.407" x2="129.32" y2="130.128" gradientUnits="userSpaceOnUse">
<stop stop-color="#5626A6"/>
<stop offset="0.569243" stop-color="#0946F2"/>
<stop offset="0.696483" stop-color="#0A8EC7"/>
<stop offset="0.743287" stop-color="#62CC4E"/>
<stop offset="0.86411" stop-color="#54D145"/>
<stop offset="1" stop-color="#01B126"/>
</linearGradient>
</defs>
</svg>
