<svg width="20" height="20" viewBox="0 0 20 20" fill="none" xmlns="http://www.w3.org/2000/svg">
<g opacity="0.7">
<path d="M9.99925 0.833496C12.3004 0.833496 14.1659 2.69898 14.1659 5.00016V10.0002C14.1659 12.3013 12.3004 14.1668 9.99925 14.1668C7.69805 14.1668 5.83258 12.3013 5.83258 10.0002V5.00016C5.83258 2.69898 7.69805 0.833496 9.99925 0.833496ZM1.82617 11.6347L3.46078 11.3078C4.06853 14.3636 6.76491 16.6668 9.99925 16.6668C13.2336 16.6668 15.9299 14.3636 16.5377 11.3078L18.1723 11.6347C17.4127 15.4545 14.0422 18.3335 9.99925 18.3335C5.95633 18.3335 2.58586 15.4545 1.82617 11.6347Z" fill="black"/>
</g>
</svg>
